<svg xmlns="http://www.w3.org/2000/svg" viewBox="203.7 227.5 792.8 742.1"><path d="M902.9 580.5c-5 0-9 4.1-9 9s4 9 9 9 9-4 9-9-4.1-9-9-9z"/><path d="m977.9 598.2-69.7-57.4c-3-2.4-5-6-5.4-9.8l-6.6-54-43.1 50c-.9 1.1-2 2-3 2.7l-96.2 64a15 15 0 0 1-17.8-.9C666 534.6 539.8 570 538.5 570.3c-1.6.5-3.2.5-4.9.4a344.4 344.4 0 0 1-30.2 17.8C384.7 651.3 389 731.2 389 732a15 15 0 1 1-30 2.2c-.2-4-5.6-100.3 130.2-172.2 81.3-43 128.6-107.8 126.7-173.3-1.5-55.2-38.3-102.1-103.4-132.1-90.5-41.7-166-30.9-213.5-14.7-37 12.7-59.6 51.3-51.4 87.7 9.5 42.2 48.4 60.6 115.6 55a15 15 0 0 1 12.6 24.8C374.2 411.2 220.6 588 206 689.3 190 799.9 255.5 875 406 919.5a15 15 0 0 1 8.6 6.7l25.7 43.4h160.8c12.8-1.6 14.5-14.1 14.6-17.8.5-8.8-3.4-19.8-15.5-22.8h-92.1l-.9-.1c-1.5 0-3.1-.4-4.4-1l-1.6-.8c-1-.6-2-1.2-3-2l-1.3-1.5c-.7-.8-1.4-1.8-1.9-2.8l-.7-1c-.1-.4 0-.6-.2-1-.2-.3-.4-.6-.5-1.1-.2-.7 0-1.6-.1-2.3l-.2-2c0-1.4.4-2.6.9-4l.3-1.4c.7-1.7 1.7-3.1 3-4.4l1.1-.9c.9-.7 1.7-1.5 2.8-2.1 37.5-19.6 133.8-83.4 128.4-143.8a77.7 77.7 0 0 0-37-61.5c-26.7-15.7-63.1-14.7-102.1 2.7a15 15 0 1 1-12.2-27.4c48.1-21.4 94.2-21.9 129.6-1a107.2 107.2 0 0 1 51.7 84.7c3.2 37-18.3 71.6-45.5 99.9l68.8-28.3a15 15 0 0 1 16.3 3.2l137.1 136.1 16.1-17.8c-49.4-76.2-64.7-140.6-45-191.6 24-62.5 90.9-79.5 93.6-80.3 1.3-.4 2.8-.5 4.2-.5l73.5 3.3 9.1-13.8a50.5 50.5 0 0 0-9.9-66.8zm-75 12.4a21 21 0 1 1 0-42 21 21 0 0 1 0 42z"/></svg>
