<svg id="Layer_1" xmlns="http://www.w3.org/2000/svg" version="1.1" viewBox="0 0 500.5 500.5"><defs><style>.st0{fill:#fefdf7}</style></defs><rect width="500.5" height="500.5" rx="104.6" ry="104.6" style="fill:#ed2459"/><path class="st0" d="M349.4 217.6a7.3 7.3 0 1 0-14.6 0 7.3 7.3 0 0 0 14.6 0Z"/><path class="st0" d="M388.2 305.4c.5-1 1-2 1.2-3 2.6-9.9-.7-16.3-10.7-20.8-4-1.8-8-3.3-12.5-4.8-5-1.8-10.2-3.7-15.1-6l-8.7-4.3 21.4-7.5c20.6-10 29.2-22 25.5-35.7-7-26-24.2-44.4-48.4-51.7l-2.4-.7-.4-2.6c-1.5-10.8-8-23.5-21.3-26.2v1c.3 3.1.5 6.5.3 9.8.2 1.7-.3 3-1.3 4s-2.4 1.4-3.8 1.1l-2-.3-1-1.8a28.3 28.3 0 0 0-17-13.4v60.7c0 12.7-11.5 23.2-22.3 28.7-5.4 2.7-11 5.2-16.3 7.7a353 353 0 0 0-12.6 5.8l-10.2 5 4.8-10.3A86.9 86.9 0 0 0 134 115a85.7 85.7 0 0 0-61.8 80.6h47.4c12.6 0 21.3 12 22 23.1 1 13.2.6 27.1.1 40.6-.5 14.6-1 29.8.4 43.9a72.5 72.5 0 0 0 63 65.6l4.5.1c2.5 0 5 0 7 .5 1.7.3 3.8 1.3 6.1 2.5a44.5 44.5 0 0 0 14.8 4.6H324v-5.3c0-4.8-3.4-13.1-12.2-13.1H300c-1.1 0-2.3-.5-3.1-1.4-1-1-1.6-2.6-1.5-4 0-1.1.6-2.5 1.6-4.9l1-2.6a41.4 41.4 0 0 0-1.1-27.7 44.6 44.6 0 0 0-38.3-28.4v19.3c5.5.5 10.4 2.7 14.3 6.5 4.3 4.2 7 10 7.8 16.4 1.2 11.2-4.7 24.2-20.4 26.2-7.5 1-22.2.9-30-3.3a33.7 33.7 0 0 1-16.8-21.6c-4.4-16.7 2-35.5 8.7-46.4 10.3-16.7 26.9-24 42.9-31.2 14.1-6.3 27.5-12.3 36.4-24.3a56.6 56.6 0 0 0 9.4-40.7l-.5-5.3 5.2 1c13 2.2 23.2 5.4 31.3 9.8a51.1 51.1 0 0 1 24.3 33l.1.6v.7c-.1 1.6-1 3.2-4.8 6.3-10.5 8.4-25.5 10.7-37.5 11l.5 43.5-4.3-.1c-4.7-.3-8.9-3.7-11-6.7a22 22 0 0 1-3.3-8.1v-3.5h-19.4c.3 6.7 1.2 12.7 4.2 18.5 4.3 8.7 16.5 18.7 25.8 18.7h27.7v-18.3L388 306l.2-.6Z"/></svg>
