<svg xmlns="http://www.w3.org/2000/svg" viewBox="0 0 356 296.7"><path d="M310.4 118.7a8.2 8.2 0 1 0-16.4 0 8.2 8.2 0 0 0 16.4 0Z"/><path d="m353.7 217 1.4-3.3c2.9-11.1-.8-18.3-12-23.4-4.3-2-9-3.6-13.9-5.4-5.7-2-11.5-4-17-6.7l-9.7-4.7 24-8.5c23-11 32.6-24.5 28.5-40a79.2 79.2 0 0 0-54.1-57.8l-2.8-.8-.4-2.9c-1.7-12-9-26.2-23.8-29.3v1c.3 3.6.5 7.3.3 11.1.2 2-.3 3.4-1.5 4.5a5 5 0 0 1-4.3 1.2l-2.2-.3-1-2a31.6 31.6 0 0 0-19.2-15v67.8c0 14.3-12.8 26-24.9 32.2-6 3-12.2 5.9-18.3 8.6-4.6 2-9.4 4.3-14 6.5l-11.5 5.6 5.4-11.6A97.2 97.2 0 0 0 69.3 4 96 96 0 0 0 0 94.3h53.1c14 0 23.8 13.5 24.7 25.9 1.1 14.8.6 30.3 0 45.4a401 401 0 0 0 .5 49.1 81.1 81.1 0 0 0 70.4 73.5l5.1.1c2.8 0 5.7 0 8 .6 1.8.3 4.1 1.5 6.7 2.8a48.4 48.4 0 0 0 16.5 5.1h97v-6c0-5.3-3.8-14.6-13.6-14.6h-13.3c-1.3 0-2.6-.6-3.5-1.6a6 6 0 0 1-1.7-4.4c.1-1.3.7-2.8 1.8-5.5.4-1 1-2.4 1.1-3a46.3 46.3 0 0 0-1.2-31 50 50 0 0 0-42.9-31.8v21.7c6.2.5 11.6 3 16 7.2a30 30 0 0 1 8.7 18.4c1.4 12.6-5.2 27.1-22.8 29.4-8.3 1-24.8 1-33.6-3.8a37.7 37.7 0 0 1-18.8-24c-5-18.9 2.2-39.8 9.8-52 11.5-18.8 30-27 48-35 15.8-7 30.8-13.8 40.8-27.2A63.4 63.4 0 0 0 267.3 88l-.6-5.9 5.8 1c14.5 2.6 26 6.2 35 11 13 7 22.2 19.4 27.2 37l.2.7v.8c-.1 1.8-1 3.6-5.4 7-11.7 9.5-28.5 12-42 12.3l.5 48.8-4.7-.2c-5.2-.2-10-4.1-12.4-7.4a26 26 0 0 1-3.7-9.1v-4h-21.6c.3 7.6 1.4 14.2 4.7 20.8 4.8 9.7 18.5 20.9 28.9 20.9h31V201l43.2 16.6.4-.7Z"/></svg>
