<svg data-name="Layer 1" xmlns="http://www.w3.org/2000/svg" viewBox="0 0 626 626"><rect width="626" height="626" rx="141" ry="141" style="fill:#efd9a8"/><path d="M236.7 495.8c-1.8-.5-4.2-3.8-6.2-4.9-4.5-2.2-11.8-3.6-17-6-66-29.6-87.3-95.7-60.7-162 7-17.7 30-52.7 29.9-69.4-.2-15.7-12.8-23.8-27.4-19-20 6.6-31 30.8-32.5 50.4-50-52.5-14.6-134.5 51.5-151.3 68.3-17.4 131.3 34.2 119.6 105.6-3.3 20-17.6 42.4-29 59-5.1 7.9-12.4 14.8-15.7 23.8 9.5-8.8 18-18.3 28.6-25.9 36-26 73-23.3 93.5-70.4 1.3-3.2 6.4-15.8 6.5-18.4 0-1.8-4.2-7.5-5.2-10.3-5-13.6-2.5-30.6 2.5-43.9 21.2 2.2 34.6 20.4 39 40 1.3 1 4.8-9.3 4.9-10.6.2-4-3-4.9-3.8-7-1.8-6.3 4-18.7 4.3-25.4 2.8-4.2 15.4 7.8 17.5 10.5a33 33 0 0 1 6 28.4c37.7 6 58.3 42 80.5 69 2 2.2 4.6 1 2.6 5.7-7.6 18.4-44 34.3-62.6 36.2-9 1-21.1-3-23.3 9.8-6.3 38 31 19 51 28.3a28.8 28.8 0 0 1 15.7 27.4c-1 14.8-19.7-3.8-26-5-24-5-44 28.3-71.5 31.3-16.2 1.8-12-3.7-20-13.8a68.3 68.3 0 0 0-70.3-22c.2 1.4 4.4 1.7 5.6 2 56.9 7 84 46.7 54.8 99.8l-17.4 18c24-2.4 59.4-8.3 70 20H236.6Zm229-253c7-7.7-6-22.9-14.3-13.9-8 9 6.8 22 14.3 13.8Z" style="fill:#352112"/></svg>
