<?xml version="1.0" encoding="UTF-8"?>
<svg id="Layer_1" xmlns="http://www.w3.org/2000/svg" version="1.1" viewBox="0 0 427.6 365.5">
  <!-- Generator: Adobe Illustrator 29.7.0, SVG Export Plug-In . SVG Version: 2.1.1 Build 138)  -->
  <path d="M424.3,127.7c-22.2-27-42.8-62.9-80.5-68.9,2.49-9.89.28-20.37-6-28.4-2.1-2.7-14.7-14.7-17.5-10.5-.3,6.7-6.1,19.1-4.3,25.3.8,2.2,4,3.1,3.8,7.1-.1,1.3-3.6,11.6-4.9,10.6-4.4-19.6-17.8-37.8-39-40-5,13.3-7.5,30.3-2.5,43.9,1,2.8,5.3,8.5,5.2,10.3-.1,2.6-5.2,15.2-6.5,18.4-20.5,47.1-57.4,44.4-93.5,70.4-10.5,7.6-19.1,17.1-28.6,25.8,3.3-9,10.6-15.9,15.8-23.7,11.3-16.6,25.6-39,28.9-59C206.4,37.6,143.4-14,75.1,3.4,9,20.1-26.4,102.1,23.6,154.7c1.5-19.6,12.5-43.8,32.5-50.4,14.6-4.8,27.2,3.3,27.4,18.9.2,16.7-22.8,51.7-29.9,69.5-26.6,66.2-5.3,132.3,60.7,162,5.2,2.3,12.5,3.7,17,6,2,1.1,4.4,4.4,6.2,4.8h195.4c-10.6-28.3-46-22.4-70-20l17.4-18c10.98-19.97,14-38.06,10.46-53.23.14-.49.28-.97.44-1.45,2.12-6.23,7.6-9.77,13.86-10.98,0,0,0,0,0,0,1.44,0,3.13-.11,5.13-.34,27.6-3,47.6-36.3,71.6-31.3,6.2,1.2,24.9,19.8,25.9,5,.71-11.42-5.42-22.18-15.6-27.4-20.1-9.3-57.4,9.7-51.1-28.3,2.2-12.8,14.3-8.8,23.3-9.8,18.7-1.9,55-17.8,62.6-36.2,2-4.7-.6-3.5-2.6-5.8Z"/>
  <polygon points="137.5 365.5 137.5 365.5 137.4 365.5 137.5 365.5"/>
</svg>